<svg xmlns="http://www.w3.org/2000/svg" width="1120" height="229" viewBox="0 0 1120 229">
<rect width="100%" height="100%" fill="#ffffff"/>
<text x="24" y="38" font-family="system-ui,sans-serif" font-size="22" font-weight="700" fill="#111827">Candidate Top-1 by evaluation scope</text>
<text x="24" y="93" font-family="ui-monospace,monospace" font-size="13" fill="#374151">SigLIP2 zero-shot / Open Images proxy</text>
<rect x="260" y="80" width="750" height="16" rx="2" fill="#eef2f7"/>
<rect x="260" y="80" width="448.17" height="16" rx="2" fill="#f97316"/>
<text x="1022" y="93" font-family="system-ui,sans-serif" font-size="13" fill="#111827">59.76%</text>
<text x="24" y="120" font-family="ui-monospace,monospace" font-size="13" fill="#374151">SigLIP2 linear head / same proxy</text>
<rect x="260" y="107" width="750" height="16" rx="2" fill="#eef2f7"/>
<rect x="260" y="107" width="594.51" height="16" rx="2" fill="#059669"/>
<text x="1022" y="120" font-family="system-ui,sans-serif" font-size="13" fill="#111827">79.27%</text>
<text x="24" y="147" font-family="ui-monospace,monospace" font-size="13" fill="#374151">Serving hybrid / Mac runtime, fixed Noto fixtures</text>
<rect x="260" y="134" width="750" height="16" rx="2" fill="#eef2f7"/>
<rect x="260" y="134" width="742.42" height="16" rx="2" fill="#2563eb"/>
<text x="1022" y="147" font-family="system-ui,sans-serif" font-size="13" fill="#111827">98.99%</text>
<text x="24" y="174" font-family="ui-monospace,monospace" font-size="13" fill="#374151">Airflow candidate / Linux runtime, same fixtures</text>
<rect x="260" y="161" width="750" height="16" rx="2" fill="#eef2f7"/>
<rect x="260" y="161" width="742.42" height="16" rx="2" fill="#db2777"/>
<text x="1022" y="174" font-family="system-ui,sans-serif" font-size="13" fill="#111827">98.99%</text>
</svg>